<svg width="15" height="15" viewBox="0 0 15 15" fill="none" xmlns="http://www.w3.org/2000/svg">
<path fill-rule="evenodd" clip-rule="evenodd" d="M11.5841 1.95703H3.41748C2.42581 1.95703 1.66748 2.71536 1.66748 3.70703V11.8737C1.66748 12.8654 2.42581 13.6237 3.41748 13.6237H11.5841C12.5758 13.6237 13.3341 12.8654 13.3341 11.8737V3.70703C13.3341 2.71536 12.5758 1.95703 11.5841 1.95703ZM12.1675 11.8737C12.1675 12.2237 11.9341 12.457 11.5841 12.457H3.41748C3.06748 12.457 2.83415 12.2237 2.83415 11.8737V3.70703C2.83415 3.35703 3.06748 3.1237 3.41748 3.1237H11.5841C11.9341 3.1237 12.1675 3.35703 12.1675 3.70703V11.8737ZM9.83415 8.3737C10.1841 8.3737 10.4175 8.14037 10.4175 7.79037C10.4175 7.44036 10.1841 7.20703 9.83415 7.20703H8.08415V5.45703C8.08415 5.10703 7.85081 4.8737 7.50081 4.8737C7.15081 4.8737 6.91748 5.10703 6.91748 5.45703V7.20703H5.16748C4.81748 7.20703 4.58415 7.44036 4.58415 7.79037C4.58415 8.14037 4.81748 8.3737 5.16748 8.3737H6.91748V10.1237C6.91748 10.4737 7.15081 10.707 7.50081 10.707C7.85081 10.707 8.08415 10.4737 8.08415 10.1237V8.3737H9.83415Z" fill="black"/>
<mask id="mask0_726_1753" style="mask-type:alpha" maskUnits="userSpaceOnUse" x="1" y="1" width="13" height="13">
<path fill-rule="evenodd" clip-rule="evenodd" d="M11.5841 1.95703H3.41748C2.42581 1.95703 1.66748 2.71536 1.66748 3.70703V11.8737C1.66748 12.8654 2.42581 13.6237 3.41748 13.6237H11.5841C12.5758 13.6237 13.3341 12.8654 13.3341 11.8737V3.70703C13.3341 2.71536 12.5758 1.95703 11.5841 1.95703ZM12.1675 11.8737C12.1675 12.2237 11.9341 12.457 11.5841 12.457H3.41748C3.06748 12.457 2.83415 12.2237 2.83415 11.8737V3.70703C2.83415 3.35703 3.06748 3.1237 3.41748 3.1237H11.5841C11.9341 3.1237 12.1675 3.35703 12.1675 3.70703V11.8737ZM9.83415 8.3737C10.1841 8.3737 10.4175 8.14037 10.4175 7.79037C10.4175 7.44036 10.1841 7.20703 9.83415 7.20703H8.08415V5.45703C8.08415 5.10703 7.85081 4.8737 7.50081 4.8737C7.15081 4.8737 6.91748 5.10703 6.91748 5.45703V7.20703H5.16748C4.81748 7.20703 4.58415 7.44036 4.58415 7.79037C4.58415 8.14037 4.81748 8.3737 5.16748 8.3737H6.91748V10.1237C6.91748 10.4737 7.15081 10.707 7.50081 10.707C7.85081 10.707 8.08415 10.4737 8.08415 10.1237V8.3737H9.83415Z" fill="white"/>
</mask>
<g mask="url(#mask0_726_1753)">
<rect width="14" height="14" transform="translate(0.500977 0.791016)" fill="#DE5F5F"/>
<rect x="0.500977" y="0.791016" width="14" height="14" fill="white"/>
</g>
</svg>
