<svg width="21" height="19" viewBox="0 0 21 19" fill="none" xmlns="http://www.w3.org/2000/svg">
<path d="M18.1426 18.3594H2.14258C1.61215 18.3594 1.10344 18.1487 0.728364 17.7736C0.353292 17.3985 0.142578 16.8898 0.142578 16.3594V2.35938C0.142578 1.82894 0.353292 1.32023 0.728364 0.945161C1.10344 0.570089 1.61215 0.359375 2.14258 0.359375H18.1426C18.673 0.359375 19.1817 0.570089 19.5568 0.945161C19.9319 1.32023 20.1426 1.82894 20.1426 2.35938V16.3594C20.1426 16.8898 19.9319 17.3985 19.5568 17.7736C19.1817 18.1487 18.673 18.3594 18.1426 18.3594ZM2.14258 4.35938V16.3594H18.1426V4.35938H2.14258ZM7.84858 14.0674L6.43558 12.6524L8.72858 10.3594L6.43558 8.06637L7.84958 6.65238L10.1426 8.94538L12.4356 6.65238L13.8496 8.06637L11.5566 10.3594L13.8496 12.6524L12.4366 14.0654L10.1426 11.7734L7.84958 14.0664L7.84858 14.0674Z" fill="white"/>
</svg>
