<svg width="20" height="21" viewBox="0 0 20 21" fill="none" xmlns="http://www.w3.org/2000/svg">
<g filter="url(#filter0_d_602_3856)">
<path d="M14.8727 8.04648L10.3727 12.5465C10.2227 12.6965 10.0727 12.7715 9.84766 12.7715C9.62266 12.7715 9.47266 12.6965 9.32266 12.5465L4.82266 8.04648C4.52266 7.74648 4.52266 7.29648 4.82266 6.99648C5.12266 6.69648 5.57266 6.69648 5.87266 6.99648L9.84766 10.9715L13.8227 6.99648C14.1227 6.69648 14.5727 6.69648 14.8727 6.99648C15.1727 7.29648 15.1727 7.74648 14.8727 8.04648Z" fill="black"/>
<mask id="mask0_602_3856" style="mask-type:alpha" maskUnits="userSpaceOnUse" x="4" y="6" width="12" height="7">
<path d="M14.8727 8.04648L10.3727 12.5465C10.2227 12.6965 10.0727 12.7715 9.84766 12.7715C9.62266 12.7715 9.47266 12.6965 9.32266 12.5465L4.82266 8.04648C4.52266 7.74648 4.52266 7.29648 4.82266 6.99648C5.12266 6.69648 5.57266 6.69648 5.87266 6.99648L9.84766 10.9715L13.8227 6.99648C14.1227 6.69648 14.5727 6.69648 14.8727 6.99648C15.1727 7.29648 15.1727 7.74648 14.8727 8.04648Z" fill="white"/>
</mask>
<g mask="url(#mask0_602_3856)">
<rect x="0.847656" y="0.771484" width="18" height="18" fill="#B9B9C3"/>
</g>
</g>
<defs>
<filter id="filter0_d_602_3856" x="-3.15234" y="0.771484" width="26" height="26" filterUnits="userSpaceOnUse" color-interpolation-filters="sRGB">
<feFlood flood-opacity="0" result="BackgroundImageFix"/>
<feColorMatrix in="SourceAlpha" type="matrix" values="0 0 0 0 0 0 0 0 0 0 0 0 0 0 0 0 0 0 127 0" result="hardAlpha"/>
<feOffset dy="4"/>
<feGaussianBlur stdDeviation="2"/>
<feComposite in2="hardAlpha" operator="out"/>
<feColorMatrix type="matrix" values="0 0 0 0 0 0 0 0 0 0 0 0 0 0 0 0 0 0 0.25 0"/>
<feBlend mode="normal" in2="BackgroundImageFix" result="effect1_dropShadow_602_3856"/>
<feBlend mode="normal" in="SourceGraphic" in2="effect1_dropShadow_602_3856" result="shape"/>
</filter>
</defs>
</svg>
