<svg width="19" height="19" viewBox="0 0 19 19" fill="none" xmlns="http://www.w3.org/2000/svg">
<path d="M11.6465 10.1965C11.1465 9.70648 10.4265 9.39648 9.64648 9.39648C8.93995 9.39661 8.2562 9.64642 7.716 10.1018C7.1758 10.5572 6.81392 11.1888 6.69427 11.8851C6.57463 12.5815 6.70492 13.2977 7.06214 13.9072C7.41936 14.5168 7.98052 14.9805 8.64648 15.2165C8.67999 14.194 8.9729 13.1969 9.49768 12.3188C10.0225 11.4406 10.7619 10.7103 11.6465 10.1965ZM8.73648 16.3965H2.64648V2.39648H13.8165L16.6465 5.22648V9.74648C17.3965 10.0065 18.0665 10.3965 18.6465 10.9365V4.39648L14.6465 0.396484H2.64648C2.11605 0.396484 1.60734 0.607198 1.23227 0.982271C0.857198 1.35734 0.646484 1.86605 0.646484 2.39648V16.3965C0.646484 16.9269 0.857198 17.4356 1.23227 17.8107C1.60734 18.1858 2.11605 18.3965 2.64648 18.3965H9.45648C9.10648 17.7865 8.85648 17.1165 8.73648 16.3965ZM3.64648 7.39648H12.6465V3.39648H3.64648V7.39648ZM13.3965 18.3965L10.6465 15.3965L11.8065 14.2365L13.3965 15.8265L16.9865 12.2365L18.1465 13.6465L13.3965 18.3965Z" fill="white"/>
</svg>
