<svg width="16" height="19" viewBox="0 0 16 19" fill="none" xmlns="http://www.w3.org/2000/svg">
<path d="M3 18.457C2.45 18.457 1.97933 18.2614 1.588 17.87C1.196 17.478 1 17.007 1 16.457V3.45703C0.716667 3.45703 0.479 3.36136 0.287 3.17003C0.0956668 2.97803 0 2.74036 0 2.45703C0 2.1737 0.0956668 1.93603 0.287 1.74403C0.479 1.5527 0.716667 1.45703 1 1.45703H5C5 1.1737 5.096 0.936031 5.288 0.744031C5.47933 0.552698 5.71667 0.457031 6 0.457031H10C10.2833 0.457031 10.521 0.552698 10.713 0.744031C10.9043 0.936031 11 1.1737 11 1.45703H15C15.2833 1.45703 15.5207 1.5527 15.712 1.74403C15.904 1.93603 16 2.1737 16 2.45703C16 2.74036 15.904 2.97803 15.712 3.17003C15.5207 3.36136 15.2833 3.45703 15 3.45703V16.457C15 17.007 14.8043 17.478 14.413 17.87C14.021 18.2614 13.55 18.457 13 18.457H3ZM3 3.45703V16.457H13V3.45703H3ZM5 13.457C5 13.7404 5.096 13.9777 5.288 14.169C5.47933 14.361 5.71667 14.457 6 14.457C6.28333 14.457 6.521 14.361 6.713 14.169C6.90433 13.9777 7 13.7404 7 13.457V6.45703C7 6.1737 6.90433 5.93603 6.713 5.74403C6.521 5.5527 6.28333 5.45703 6 5.45703C5.71667 5.45703 5.47933 5.5527 5.288 5.74403C5.096 5.93603 5 6.1737 5 6.45703V13.457ZM9 13.457C9 13.7404 9.096 13.9777 9.288 14.169C9.47933 14.361 9.71667 14.457 10 14.457C10.2833 14.457 10.521 14.361 10.713 14.169C10.9043 13.9777 11 13.7404 11 13.457V6.45703C11 6.1737 10.9043 5.93603 10.713 5.74403C10.521 5.5527 10.2833 5.45703 10 5.45703C9.71667 5.45703 9.47933 5.5527 9.288 5.74403C9.096 5.93603 9 6.1737 9 6.45703V13.457ZM3 3.45703V16.457V3.45703Z" fill="#FAB2B2"/>
</svg>
