<svg width="23" height="22" viewBox="0 0 23 22" fill="none" xmlns="http://www.w3.org/2000/svg">
<path fill-rule="evenodd" clip-rule="evenodd" d="M21.0606 6.22529L11.8939 14.9753C11.7106 15.1503 11.5273 15.2378 11.2523 15.2378H7.58561C7.03561 15.2378 6.66895 14.8878 6.66895 14.3628V10.8628C6.66895 10.6003 6.76061 10.4253 6.94395 10.2503L16.1106 1.50029C16.4773 1.15029 17.0273 1.15029 17.3939 1.50029L21.0606 5.00029C21.4273 5.35029 21.4273 5.87529 21.0606 6.22529ZM19.5023 13.2253V17.8628C19.5023 19.3503 18.3106 20.4878 16.7523 20.4878H3.91895C2.36061 20.4878 1.16895 19.3503 1.16895 17.8628V5.61279C1.16895 4.12529 2.36061 2.98779 3.91895 2.98779H8.77728C9.32728 2.98779 9.69395 3.33779 9.69395 3.86279C9.69395 4.38779 9.32728 4.73779 8.77728 4.73779H3.91895C3.36895 4.73779 3.00228 5.08779 3.00228 5.61279V17.8628C3.00228 18.3878 3.36895 18.7378 3.91895 18.7378H16.7523C17.3023 18.7378 17.6689 18.3878 17.6689 17.8628V13.2253C17.6689 12.7003 18.0356 12.3503 18.5856 12.3503C19.1356 12.3503 19.5023 12.7003 19.5023 13.2253ZM16.7523 3.33779L19.1356 5.61279L10.8856 13.4878H8.50228V11.2128L16.7523 3.33779Z" fill="black"/>
<mask id="mask0_88_4712" style="mask-type:alpha" maskUnits="userSpaceOnUse" x="1" y="1" width="21" height="20">
<path fill-rule="evenodd" clip-rule="evenodd" d="M21.0606 6.22529L11.8939 14.9753C11.7106 15.1503 11.5273 15.2378 11.2523 15.2378H7.58561C7.03561 15.2378 6.66895 14.8878 6.66895 14.3628V10.8628C6.66895 10.6003 6.76061 10.4253 6.94395 10.2503L16.1106 1.50029C16.4773 1.15029 17.0273 1.15029 17.3939 1.50029L21.0606 5.00029C21.4273 5.35029 21.4273 5.87529 21.0606 6.22529ZM19.5023 13.2253V17.8628C19.5023 19.3503 18.3106 20.4878 16.7523 20.4878H3.91895C2.36061 20.4878 1.16895 19.3503 1.16895 17.8628V5.61279C1.16895 4.12529 2.36061 2.98779 3.91895 2.98779H8.77728C9.32728 2.98779 9.69395 3.33779 9.69395 3.86279C9.69395 4.38779 9.32728 4.73779 8.77728 4.73779H3.91895C3.36895 4.73779 3.00228 5.08779 3.00228 5.61279V17.8628C3.00228 18.3878 3.36895 18.7378 3.91895 18.7378H16.7523C17.3023 18.7378 17.6689 18.3878 17.6689 17.8628V13.2253C17.6689 12.7003 18.0356 12.3503 18.5856 12.3503C19.1356 12.3503 19.5023 12.7003 19.5023 13.2253ZM16.7523 3.33779L19.1356 5.61279L10.8856 13.4878H8.50228V11.2128L16.7523 3.33779Z" fill="white"/>
</mask>
<g mask="url(#mask0_88_4712)">
<rect x="0.251953" y="0.362793" width="22" height="21" fill="#7367F0"/>
</g>
</svg>
