<svg width="13" height="13" viewBox="0 0 13 13" fill="none" xmlns="http://www.w3.org/2000/svg">
<path d="M10.0121 8.65781C10.2121 8.85781 10.2121 9.15781 10.0121 9.35781C9.91211 9.45781 9.81211 9.50781 9.66211 9.50781C9.51211 9.50781 9.41211 9.45781 9.31211 9.35781L6.66211 6.70781L4.01211 9.35781C3.91211 9.45781 3.81211 9.50781 3.66211 9.50781C3.51211 9.50781 3.41211 9.45781 3.31211 9.35781C3.11211 9.15781 3.11211 8.85781 3.31211 8.65781L5.96211 6.00781L3.31211 3.35781C3.11211 3.15781 3.11211 2.85781 3.31211 2.65781C3.51211 2.45781 3.81211 2.45781 4.01211 2.65781L6.66211 5.30781L9.31211 2.65781C9.51211 2.45781 9.81211 2.45781 10.0121 2.65781C10.2121 2.85781 10.2121 3.15781 10.0121 3.35781L7.36211 6.00781L10.0121 8.65781Z" fill="black"/>
<mask id="mask0_726_2067" style="mask-type:alpha" maskUnits="userSpaceOnUse" x="3" y="2" width="8" height="8">
<path d="M10.0121 8.65781C10.2121 8.85781 10.2121 9.15781 10.0121 9.35781C9.91211 9.45781 9.81211 9.50781 9.66211 9.50781C9.51211 9.50781 9.41211 9.45781 9.31211 9.35781L6.66211 6.70781L4.01211 9.35781C3.91211 9.45781 3.81211 9.50781 3.66211 9.50781C3.51211 9.50781 3.41211 9.45781 3.31211 9.35781C3.11211 9.15781 3.11211 8.85781 3.31211 8.65781L5.96211 6.00781L3.31211 3.35781C3.11211 3.15781 3.11211 2.85781 3.31211 2.65781C3.51211 2.45781 3.81211 2.45781 4.01211 2.65781L6.66211 5.30781L9.31211 2.65781C9.51211 2.45781 9.81211 2.45781 10.0121 2.65781C10.2121 2.85781 10.2121 3.15781 10.0121 3.35781L7.36211 6.00781L10.0121 8.65781Z" fill="white"/>
</mask>
<g mask="url(#mask0_726_2067)">
<rect x="0.662109" y="0.0078125" width="12" height="12" fill="#4F4F4F"/>
</g>
</svg>
